<?xml version="1.0" encoding="utf-8"?>
<svg version="1.1" id="Layer_1" xmlns="http://www.w3.org/2000/svg" xmlns:xlink="http://www.w3.org/1999/xlink" x="0px" y="0px"
	 width="24px" height="24px" viewBox="0 0 24 24" style="enable-background:new 0 0 24 24;" xml:space="preserve">
<style type="text/css">
	.st0{fill:#FFFFFF;}
</style>
<g>
	<g>
		<path class="st0" d="M21,5c-1.1-0.3-2.3-0.5-3.5-0.5c-1.9,0-4.1,0.4-5.5,1.5c-1.4-1.1-3.6-1.5-5.5-1.5S2.5,4.9,1,6v14.6
			c0,0.2,0.2,0.5,0.5,0.5c0.1,0,0.1,0,0.2,0C3.1,20.5,5.1,20,6.5,20c1.9,0,4.1,0.4,5.5,1.5c1.4-0.9,3.8-1.5,5.5-1.5
			c1.6,0,3.4,0.3,4.8,1c0.1,0,0.1,0,0.2,0c0.2,0,0.5-0.2,0.5-0.5V6C22.4,5.6,21.8,5.2,21,5z M3,18.5V7c1.1-0.3,2.3-0.5,3.5-0.5
			c1.3,0,3.1,0.4,4.5,1V19c-1.4-0.6-3.2-1-4.5-1C5.3,18,4.1,18.1,3,18.5z M21,18.5c-1.1-0.4-2.3-0.5-3.5-0.5c-1.3,0-3.1,0.4-4.5,1
			V7.5c1.4-0.6,3.2-1,4.5-1c1.2,0,2.4,0.2,3.5,0.5V18.5z"/>
	</g>
	<g>
		<path class="st0" d="M17.5,10.5c0.9,0,1.7,0.1,2.5,0.3V9.2C19.2,9.1,18.4,9,17.5,9C16.2,9,15,9.2,14,9.5V11
			C15,10.7,16.2,10.5,17.5,10.5z"/>
		<path class="st0" d="M17.5,13.2c0.9,0,1.7,0.1,2.5,0.3v-1.5c-0.8-0.1-1.6-0.2-2.5-0.2c-1.3,0-2.5,0.2-3.5,0.5v1.6
			C15,13.4,16.2,13.2,17.5,13.2z"/>
		<path class="st0" d="M17.5,15.8c0.9,0,1.7,0.1,2.5,0.3v-1.5c-0.8-0.1-1.6-0.2-2.5-0.2c-1.3,0-2.5,0.2-3.5,0.5v1.6
			C15,16,16.2,15.8,17.5,15.8z"/>
	</g>
</g>
</svg>
