<?xml version="1.0" encoding="utf-8"?>
<!-- Generator: Adobe Illustrator 26.3.1, SVG Export Plug-In . SVG Version: 6.00 Build 0)  -->
<svg version="1.1" id="Layer_1" xmlns="http://www.w3.org/2000/svg" xmlns:xlink="http://www.w3.org/1999/xlink" x="0px" y="0px"
	 width="24px" height="24px" viewBox="0 0 24 24" style="enable-background:new 0 0 24 24;" xml:space="preserve">
<style type="text/css">
	.st0{fill:#FFFFFF;}
</style>
<path class="st0" d="M14.2,5L19,9.8V19H5V5H14.2L14.2,5 M14.2,3H5C3.9,3,3,3.9,3,5v14c0,1.1,0.9,2,2,2h14c1.1,0,2-0.9,2-2V9.8
	c0-0.5-0.2-1-0.6-1.4l-4.8-4.8C15.2,3.2,14.7,3,14.2,3L14.2,3z M7,15h10v2H7V15z M7,11h10v2H7V11z M7,7h7v2H7V7z"/>
</svg>
